<svg xmlns="http://www.w3.org/2000/svg" viewBox="0 0 296 96" width="296" height="96"
     role="img" aria-label="MoleculaEntity"
     font-family="system-ui, -apple-system, 'Segoe UI', Roboto, 'Helvetica Neue', sans-serif">
  <title>MoleculaEntity</title>
  <style>
    .bond { stroke: #94a3b8; stroke-width: 3; stroke-linecap: round; }
    .atom   { fill: #ffffff; stroke: #334155; stroke-width: 3; }
    .atom-accent{ fill: #14b8a6; stroke: #0f766e; stroke-width: 3; }
    .nucleus  { fill: #3b82f6; stroke: #1d4ed8; stroke-width: 3; }
    .name    { fill: #0f172a; }
    .subname  { fill: #3b82f6; }

    @media (prefers-color-scheme: dark) {
      .bond { stroke: #6b7684; }
      .atom   { fill: #0d1117; stroke: #c9d1d9; }
      .atom-accent{ fill: #2dd4bf; stroke: #0d9488; }
      .nucleus  { fill: #58a6ff; stroke: #1f6feb; }
      .name    { fill: #e6edf3; }
      .subname  { fill: #58a6ff; }
    }
  </style>
  <line class="bond" x1="78.00" y1="48.00" x2="63.00" y2="73.98"/>
  <line class="bond" x1="63.00" y1="73.98" x2="33.00" y2="73.98"/>
  <line class="bond" x1="33.00" y1="73.98" x2="18.00" y2="48.00"/>
  <line class="bond" x1="18.00" y1="48.00" x2="33.00" y2="22.02"/>
  <line class="bond" x1="33.00" y1="22.02" x2="63.00" y2="22.02"/>
  <line class="bond" x1="63.00" y1="22.02" x2="78.00" y2="48.00"/>
  <line class="bond" x1="48.0" y1="48.0" x2="78.00" y2="48.00"/>
  <line class="bond" x1="48.0" y1="48.0" x2="33.00" y2="73.98"/>
  <line class="bond" x1="48.0" y1="48.0" x2="33.00" y2="22.02"/>
  <circle class="atom" cx="78.00" cy="48.00" r="7.5"/>
  <circle class="atom" cx="63.00" cy="73.98" r="7.5"/>
  <circle class="atom" cx="33.00" cy="73.98" r="7.5"/>
  <circle class="atom" cx="18.00" cy="48.00" r="7.5"/>
  <circle class="atom-accent" cx="33.00" cy="22.02" r="7.5"/>
  <circle class="atom" cx="63.00" cy="22.02" r="7.5"/>
  <circle class="nucleus" cx="48.0" cy="48.0" r="10.5"/>
  <text class="name" x="112" y="53" font-size="34" font-weight="650" letter-spacing="-0.4">Molecula</text>
  <text class="subname" x="112" y="75" font-size="15.5" font-weight="500" letter-spacing="3.6">ENTITY</text>
</svg>
